<?xml version="1.0" standalone="no"?>
<!DOCTYPE svg PUBLIC "-//W3C//DTD SVG 20010904//EN"
 "http://www.w3.org/TR/2001/REC-SVG-20010904/DTD/svg10.dtd">
<svg version="1.0" xmlns="http://www.w3.org/2000/svg"
 width="512.000000pt" height="512.000000pt" viewBox="0 0 512.000000 512.000000"
 preserveAspectRatio="xMidYMid meet">

<g transform="translate(0.000000,512.000000) scale(0.100000,-0.100000)"
fill="#000000" stroke="none">
<path d="M3561 5110 c-167 -24 -311 -69 -454 -142 -378 -194 -642 -539 -733
-958 -22 -100 -30 -355 -15 -461 88 -620 570 -1102 1190 -1190 106 -15 361 -7
461 15 265 58 492 179 685 367 207 201 334 431 397 717 32 145 32 407 0 551
-64 285 -182 502 -381 702 -260 260 -571 394 -936 404 -82 2 -179 0 -214 -5z
m282 -663 c30 -18 56 -44 74 -75 27 -46 28 -50 31 -234 l4 -186 186 -4 c184
-3 188 -4 234 -31 121 -71 142 -234 44 -332 -57 -57 -94 -65 -294 -65 l-170 0
-4 -187 c-3 -179 -4 -190 -28 -233 -67 -119 -225 -147 -327 -57 -65 57 -73 88
-73 295 l0 182 -180 0 c-141 0 -189 3 -218 16 -79 33 -132 110 -132 194 0 88
38 152 115 193 36 20 58 22 228 25 l187 4 0 171 c0 95 5 189 11 211 13 47 85
121 131 135 55 17 130 8 181 -22z"/>
<path d="M80 4668 c-48 -33 -72 -70 -77 -120 -7 -58 23 -118 74 -149 37 -24
43 -24 368 -29 214 -4 339 -9 355 -17 57 -26 107 -72 133 -124 22 -43 77 -290
272 -1220 135 -642 245 -1174 245 -1183 0 -14 -14 -16 -92 -16 -164 -1 -256
-36 -359 -139 -152 -152 -187 -357 -93 -549 66 -136 205 -239 354 -262 42 -6
639 -10 1680 -10 l1616 0 44 23 c66 33 93 78 88 148 -5 65 -32 109 -82 133
-31 15 -180 16 -1658 16 -1066 0 -1636 4 -1660 10 -49 14 -104 76 -113 129 -8
50 24 123 68 155 28 21 34 21 1680 26 1629 5 1652 5 1686 25 64 38 70 54 142
397 38 178 71 336 75 351 6 27 2 26 -93 -38 -344 -231 -773 -338 -1181 -295
-630 67 -1175 449 -1448 1015 -126 262 -184 515 -184 801 l0 94 -282 2 -282 3
-47 220 c-51 239 -72 297 -142 392 -81 109 -187 178 -325 214 -67 17 -112 19
-402 19 -323 0 -327 0 -360 -22z"/>
<path d="M2165 631 c-92 -24 -173 -90 -215 -176 -34 -69 -35 -198 -2 -265 34
-71 75 -114 144 -151 58 -31 70 -34 148 -33 72 0 93 4 136 26 75 40 107 70
145 140 31 58 34 70 34 148 0 78 -3 90 -34 148 -57 104 -144 160 -260 167 -36
2 -79 1 -96 -4z"/>
<path d="M3842 622 c-66 -24 -118 -65 -159 -126 -43 -63 -56 -116 -51 -201 8
-116 71 -211 176 -262 48 -24 69 -28 137 -28 105 1 167 27 234 101 114 125
114 303 0 428 -85 94 -221 129 -337 88z"/>
</g>
</svg>
