<?xml version="1.0" standalone="no"?>
<!DOCTYPE svg PUBLIC "-//W3C//DTD SVG 20010904//EN"
 "http://www.w3.org/TR/2001/REC-SVG-20010904/DTD/svg10.dtd">
<svg version="1.0" xmlns="http://www.w3.org/2000/svg"
 width="512.000000pt" height="512.000000pt" viewBox="0 0 512.000000 512.000000"
 preserveAspectRatio="xMidYMid meet">

<g transform="translate(0.000000,512.000000) scale(0.100000,-0.100000)"
fill="#000000" stroke="none">
<path d="M1088 4621 c-148 -48 -192 -102 -342 -418 l-119 -250 -51 -12 c-111
-25 -223 -118 -279 -231 l-32 -65 -5 -240 -5 -240 -112 -232 c-62 -127 -120
-258 -129 -289 -47 -164 36 -357 192 -446 l53 -29 3 -313 3 -312 37 -75 c46
-93 112 -158 206 -202 l67 -32 830 -5 830 -5 763 -367 c419 -202 788 -375 819
-384 127 -37 280 5 379 103 47 47 72 94 272 516 44 90 78 149 89 153 123 42
207 113 260 222 l38 76 5 195 6 196 115 240 c64 132 122 264 129 294 39 162
-46 348 -196 433 l-53 29 -3 357 -3 357 -33 68 c-60 123 -176 211 -311 237
-34 6 -374 10 -926 10 l-871 0 -678 325 c-372 178 -700 331 -728 340 -68 20
-149 18 -220 -4z m508 -315 c181 -87 416 -199 522 -249 l192 -92 -376 -3
c-206 -1 -541 -1 -744 0 l-368 3 94 200 c102 215 137 264 210 291 83 30 116
20 470 -150z m-146 -878 c0 -199 -2 -359 -4 -357 -2 2 -18 40 -36 84 -60 152
-123 222 -238 266 -81 30 -204 24 -283 -14 -144 -69 -229 -236 -199 -389 27
-139 110 -232 262 -293 51 -20 95 -39 97 -41 2 -2 -136 -4 -307 -4 l-312 0 0
458 c0 424 2 460 19 497 32 69 103 128 176 146 17 4 209 7 428 8 l397 1 0
-362z m3090 336 c55 -26 106 -76 131 -129 17 -37 19 -73 19 -497 l0 -458
-1320 0 c-726 0 -1320 2 -1320 4 0 2 37 19 83 37 135 54 191 100 245 203 24
46 27 61 27 156 0 90 -3 112 -24 153 -117 237 -424 284 -599 92 -40 -44 -60
-80 -105 -192 l-56 -138 -1 398 0 397 1438 -2 c1435 -3 1437 -3 1482 -24z
m-3386 -523 c19 -12 44 -36 54 -54 22 -37 186 -446 181 -451 -10 -8 -451 182
-474 204 -77 72 -83 186 -13 266 38 43 61 56 113 64 51 7 94 -2 139 -29z m984
8 c123 -60 137 -250 23 -324 -30 -20 -176 -82 -413 -176 l-48 -19 19 48 c170
430 174 437 239 472 50 26 124 26 180 -1z m-1878 -681 l-1 -203 -33 38 c-41
45 -61 112 -53 171 5 36 74 196 84 196 2 0 3 -91 3 -202z m4633 134 c9 -10 26
-40 38 -67 30 -68 22 -130 -30 -231 l-40 -79 -1 198 c0 108 4 197 8 197 5 0
16 -8 25 -18z m-3564 -218 c-40 -43 -155 -114 -242 -150 -77 -31 -225 -64
-288 -64 l-29 0 0 -86 0 -87 82 8 c186 16 380 90 526 199 l72 55 0 -479 0
-480 -412 0 -413 0 -50 24 c-60 28 -97 66 -124 126 -20 43 -21 64 -21 503 l0
457 462 0 461 0 -24 -26z m3361 -431 c0 -439 -1 -460 -21 -503 -27 -60 -64
-98 -124 -126 l-50 -24 -1437 0 -1438 0 0 491 0 491 48 -39 c102 -85 223 -153
342 -191 74 -24 224 -52 281 -52 l39 0 0 84 0 84 -77 7 c-158 15 -325 81 -449
177 -30 24 -54 46 -54 50 0 5 662 8 1470 8 l1470 0 0 -457z m-350 -827 c0 -3
-52 -114 -115 -248 -94 -199 -123 -251 -159 -285 -63 -60 -142 -78 -222 -49
-37 13 -1124 534 -1189 569 -28 15 29 16 828 17 471 0 857 -2 857 -4z"/>
<path d="M3070 3360 l0 -170 85 0 85 0 0 170 0 170 -85 0 -85 0 0 -170z"/>
<path d="M3410 3360 l0 -170 85 0 85 0 0 170 0 170 -85 0 -85 0 0 -170z"/>
<path d="M3750 3360 l0 -170 90 0 90 0 0 170 0 170 -90 0 -90 0 0 -170z"/>
<path d="M4100 3360 l0 -170 85 0 85 0 0 170 0 170 -85 0 -85 0 0 -170z"/>
<path d="M3070 1825 l0 -85 85 0 85 0 0 85 0 85 -85 0 -85 0 0 -85z"/>
<path d="M3410 1825 l0 -85 85 0 85 0 0 85 0 85 -85 0 -85 0 0 -85z"/>
<path d="M3750 1825 l0 -85 90 0 90 0 0 85 0 85 -90 0 -90 0 0 -85z"/>
<path d="M4100 1825 l0 -85 85 0 85 0 0 85 0 85 -85 0 -85 0 0 -85z"/>
</g>
</svg>
