<?xml version="1.0" standalone="no"?>
<!DOCTYPE svg PUBLIC "-//W3C//DTD SVG 20010904//EN"
 "http://www.w3.org/TR/2001/REC-SVG-20010904/DTD/svg10.dtd">
<svg version="1.0" xmlns="http://www.w3.org/2000/svg"
 width="512.000000pt" height="512.000000pt" viewBox="0 0 512.000000 512.000000"
 preserveAspectRatio="xMidYMid meet">

<g transform="translate(0.000000,512.000000) scale(0.100000,-0.100000)"
fill="#000000" stroke="none">
<path d="M1595 5114 c-366 -22 -621 -48 -840 -85 -406 -68 -671 -181 -734
-312 l-21 -43 0 -1952 c0 -2157 -5 -1989 63 -2060 166 -173 761 -303 1545
-338 l152 -7 0 80 0 80 -82 6 c-46 4 -118 7 -160 7 l-78 0 0 239 c0 272 8 251
-96 251 l-64 0 0 161 0 160 52 -3 52 -3 31 -80 c177 -450 517 -814 957 -1025
961 -460 2107 -51 2564 915 246 522 244 1121 -6 1643 -193 401 -502 710 -901
901 -184 88 -333 134 -536 167 l-106 18 96 32 c179 60 297 136 336 217 20 41
21 60 21 317 0 257 -1 276 -21 317 -89 184 -535 316 -1279 378 -172 15 -807
27 -945 19z m736 -164 c566 -29 1013 -111 1249 -230 56 -29 100 -64 100 -80 0
-33 -113 -95 -264 -145 -530 -178 -1639 -229 -2466 -114 -284 39 -550 108
-686 177 -60 31 -104 65 -104 82 0 29 101 88 230 134 396 143 1181 214 1941
176z m-1926 -619 c131 -40 296 -74 492 -101 87 -11 173 -23 191 -26 l32 -5 0
-159 c0 -133 -2 -160 -15 -160 -38 0 -315 44 -435 70 -223 47 -427 122 -487
179 -22 21 -23 30 -23 161 l0 139 73 -34 c39 -18 117 -47 172 -64z m3275 -41
c0 -131 -1 -140 -22 -161 -61 -57 -264 -132 -485 -179 -128 -27 -395 -70 -435
-70 -16 0 -18 14 -18 160 0 88 3 160 8 160 40 1 386 54 487 75 144 30 346 93
415 130 25 13 46 24 48 25 1 0 2 -63 2 -140z m-2148 -120 c108 -5 283 -10 388
-10 183 0 554 15 613 25 l27 5 0 -164 0 -164 -137 -8 c-178 -11 -828 -11
-1005 0 l-138 8 0 164 0 164 28 -5 c15 -3 115 -9 224 -15z m-1153 -310 c184
-60 463 -111 774 -142 l127 -12 0 -164 c0 -151 -1 -163 -18 -158 -9 2 -53 7
-97 11 -410 34 -877 154 -982 254 -22 21 -23 30 -23 162 l0 139 52 -26 c28
-14 104 -43 167 -64z m1666 -176 c171 3 337 8 370 12 l60 6 -120 -60 c-133
-66 -267 -151 -362 -230 l-62 -52 -103 0 c-57 0 -167 3 -245 7 l-143 6 0 161
0 161 147 -8 c82 -5 288 -6 458 -3z m1338 -14 c51 -6 119 -16 152 -23 l60 -12
0 -45 c0 -70 2 -70 -395 -70 -397 0 -393 0 -398 71 l-3 46 108 17 c59 9 122
18 138 20 68 7 252 5 338 -4z m-715 -196 c19 -36 89 -92 129 -103 51 -15 755
-15 806 0 43 12 111 68 132 110 8 15 17 45 21 67 l6 41 42 -16 c182 -69 398
-196 539 -317 l78 -67 -32 -37 c-52 -59 -72 -116 -66 -186 4 -55 22 -94 171
-380 92 -179 180 -335 198 -354 62 -65 143 -87 213 -58 l34 14 8 -56 c10 -73
10 -372 0 -434 l-8 -47 -34 15 c-70 29 -151 7 -213 -58 -19 -20 -105 -174
-199 -354 -148 -287 -166 -325 -170 -380 -6 -70 14 -127 66 -186 l31 -36 -43
-38 c-151 -138 -358 -266 -550 -338 l-65 -24 -6 40 c-4 22 -13 52 -21 67 -21
42 -89 98 -132 110 -51 15 -755 15 -806 0 -43 -12 -111 -68 -132 -110 -8 -15
-17 -45 -21 -67 l-6 -40 -64 24 c-172 65 -401 202 -532 320 l-62 56 31 36 c51
58 72 115 67 186 -4 56 -18 88 -172 384 -96 184 -181 336 -199 354 -62 62
-143 82 -212 54 l-34 -15 -8 47 c-10 61 -10 383 0 444 l8 47 34 -15 c69 -29
150 -7 212 56 18 18 106 174 199 354 149 285 168 328 172 379 5 71 -16 134
-64 187 l-34 37 48 45 c131 123 362 264 547 333 l60 23 11 -47 c5 -25 15 -55
22 -67z m-2263 -103 c131 -40 296 -74 492 -101 87 -11 173 -23 191 -26 l32 -5
0 -159 c0 -101 -4 -160 -10 -160 -6 0 -76 9 -158 21 -366 51 -650 131 -759
215 l-33 25 0 144 0 144 73 -34 c39 -18 117 -47 172 -64z m1135 -161 c118 -6
216 -13 218 -15 2 -1 -25 -38 -60 -81 -35 -44 -83 -111 -107 -149 -25 -39 -46
-72 -47 -73 -2 -2 -61 -1 -133 3 l-131 8 0 163 0 164 23 -4 c12 -3 119 -10
237 -16z m380 -224 c-1 -37 -309 -635 -338 -654 -15 -10 -25 -10 -55 3 l-35
15 25 82 c64 211 173 418 307 584 l41 52 28 -26 c18 -17 27 -36 27 -56z m2658
27 c121 -146 249 -391 310 -596 l20 -67 -35 -15 c-24 -10 -40 -12 -53 -5 -23
12 -340 622 -340 654 0 23 34 76 50 76 4 0 26 -21 48 -47z m-4223 -107 c214
-72 531 -127 885 -156 74 -6 153 -13 176 -16 l41 -5 -38 -93 c-20 -52 -45
-121 -54 -155 -11 -37 -23 -61 -32 -61 -7 0 -80 7 -161 15 -484 50 -841 138
-979 242 l-33 24 0 145 0 144 58 -29 c31 -15 93 -40 137 -55z m19 -485 c198
-63 470 -113 789 -145 76 -7 140 -16 142 -18 3 -2 0 -29 -5 -60 -5 -31 -12
-99 -16 -152 l-7 -96 -36 0 c-60 0 -348 38 -498 65 -244 45 -438 107 -531 169
l-47 31 -3 148 -3 148 58 -30 c32 -16 102 -43 157 -60z m77 -505 c194 -53 499
-103 744 -124 l90 -7 7 -70 c4 -38 14 -110 24 -158 9 -48 14 -90 12 -93 -3 -2
-72 3 -154 11 -486 50 -843 138 -981 242 l-33 24 0 144 0 144 84 -40 c46 -21
139 -54 207 -73z m-77 -455 c174 -56 369 -94 694 -136 l52 -7 0 -159 0 -160
-52 7 c-428 51 -750 136 -875 231 l-33 24 0 145 0 144 58 -29 c31 -16 101 -43
156 -60z m1214 42 c31 -27 332 -615 332 -649 0 -17 -11 -39 -26 -55 l-27 -28
-39 47 c-127 154 -249 385 -311 590 l-26 83 32 13 c42 19 42 19 65 -1z m3287
3 l34 -14 -24 -79 c-66 -212 -187 -442 -314 -596 l-39 -47 -26 31 c-14 17 -26
41 -26 55 0 30 316 641 338 654 22 12 17 12 57 -4z m-4501 -525 c197 -63 489
-117 779 -143 l127 -12 0 -159 0 -160 -92 7 c-409 30 -862 141 -995 242 l-33
25 0 145 0 144 58 -29 c31 -16 101 -43 156 -60z m3196 -674 c21 -11 25 -20 25
-57 l0 -45 -54 -11 c-192 -43 -465 -43 -676 -1 l-60 12 0 45 c0 70 -2 70 395
70 258 0 351 -3 370 -13z"/>
<path d="M1525 4873 c-439 -21 -757 -65 -873 -120 -122 -57 -122 -169 0 -226
97 -46 290 -77 663 -109 93 -8 324 -13 605 -13 549 0 881 24 1134 80 155 35
226 83 226 155 0 112 -167 169 -620 210 -289 26 -847 37 -1135 23z m1065 -176
c222 -24 400 -49 400 -57 0 -8 -182 -34 -400 -56 -88 -10 -300 -18 -542 -21
-423 -6 -657 3 -942 37 -228 27 -256 32 -256 40 0 11 334 53 560 70 187 14
1011 5 1180 -13z"/>
<path d="M2320 3200 l0 -80 80 0 80 0 0 80 0 80 -80 0 -80 0 0 -80z"/>
<path d="M3920 3200 l0 -80 80 0 80 0 0 80 0 80 -80 0 -80 0 0 -80z"/>
<path d="M3000 3183 c-175 -26 -363 -101 -520 -206 -103 -69 -259 -224 -331
-330 -60 -86 -149 -260 -149 -289 0 -21 141 -69 147 -50 18 52 109 219 149
272 251 340 675 514 1080 445 435 -75 776 -378 898 -798 171 -589 -174 -1209
-768 -1382 -513 -148 -1068 97 -1308 580 -46 92 -82 202 -98 295 -21 133 -10
120 -95 120 -40 0 -76 -3 -78 -7 -3 -5 2 -53 10 -108 68 -465 412 -871 865
-1019 374 -123 768 -69 1105 150 107 69 280 239 350 344 345 516 282 1184
-153 1622 -289 291 -696 424 -1104 361z"/>
<path d="M3157 2709 c-9 -6 -40 -54 -67 -108 -64 -129 -192 -318 -276 -409
-78 -86 -185 -164 -255 -187 -108 -36 -108 -134 0 -170 166 -55 366 -279 531
-595 60 -114 83 -133 138 -114 21 7 40 34 89 128 149 282 328 491 483 562 99
46 105 49 114 77 6 17 6 37 0 54 -9 28 -15 31 -114 77 -155 71 -337 284 -483
564 -32 61 -67 117 -77 122 -24 13 -60 12 -83 -1z m79 -306 c96 -167 239 -343
342 -423 39 -30 71 -57 71 -60 0 -3 -32 -30 -71 -60 -85 -66 -199 -199 -287
-337 -36 -55 -72 -109 -78 -120 -15 -21 -3 -35 -104 120 -88 138 -202 271
-287 337 -39 30 -71 57 -71 60 0 3 32 30 71 60 103 80 246 256 342 423 15 26
32 47 36 47 4 0 21 -21 36 -47z"/>
<path d="M1935 2113 c-13 -119 -20 -108 67 -111 86 -3 82 -8 93 89 l6 55 -64
12 c-98 18 -95 20 -102 -45z"/>
<path d="M1600 1920 l0 -80 80 0 80 0 0 80 0 80 -80 0 -80 0 0 -80z"/>
<path d="M4640 1920 l0 -80 80 0 80 0 0 80 0 80 -80 0 -80 0 0 -80z"/>
<path d="M2320 640 l0 -80 80 0 80 0 0 80 0 80 -80 0 -80 0 0 -80z"/>
<path d="M3920 640 l0 -80 80 0 80 0 0 80 0 80 -80 0 -80 0 0 -80z"/>
</g>
</svg>
