<?xml version="1.0" standalone="no"?>
<!DOCTYPE svg PUBLIC "-//W3C//DTD SVG 20010904//EN"
 "http://www.w3.org/TR/2001/REC-SVG-20010904/DTD/svg10.dtd">
<svg version="1.0" xmlns="http://www.w3.org/2000/svg"
 width="512.000000pt" height="512.000000pt" viewBox="0 0 512.000000 512.000000"
 preserveAspectRatio="xMidYMid meet">

<g transform="translate(0.000000,512.000000) scale(0.100000,-0.100000)"
fill="#000000" stroke="none">
<path d="M2410 4789 c-333 -38 -653 -171 -915 -379 -66 -53 -225 -211 -276
-275 -114 -143 -240 -376 -298 -552 -71 -215 -102 -470 -83 -686 24 -260 72
-433 188 -664 l76 -152 -315 -588 c-174 -323 -314 -589 -313 -590 1 -1 204 20
452 46 247 27 452 46 457 42 4 -4 100 -182 213 -397 113 -214 209 -393 213
-397 4 -4 137 228 295 517 158 288 293 531 299 539 10 12 30 14 108 10 l97 -6
303 -553 c167 -304 307 -554 310 -554 3 0 100 178 215 396 115 218 215 399
223 402 8 3 212 -16 454 -42 242 -25 441 -45 444 -43 2 2 -125 244 -281 536
l-284 532 59 82 c72 101 177 302 218 420 137 392 136 816 -3 1200 -276 764
-1053 1247 -1856 1156z m393 -174 c611 -80 1120 -496 1313 -1070 65 -194 77
-276 78 -510 1 -184 -2 -223 -22 -319 -141 -657 -638 -1142 -1297 -1263 -131
-25 -417 -24 -550 1 -898 167 -1481 1037 -1284 1918 31 140 63 230 134 373
298 602 962 957 1628 870z m-1424 -2863 c86 -83 248 -205 355 -265 104 -60
269 -127 398 -163 53 -15 96 -30 94 -33 -248 -453 -411 -740 -417 -734 -4 4
-81 145 -170 313 -89 168 -162 306 -163 306 0 1 -147 -13 -326 -32 -179 -19
-337 -33 -351 -32 -25 3 -20 14 194 411 l220 408 50 -58 c28 -32 80 -87 116
-121z m2690 -322 c106 -199 192 -362 190 -364 -2 -1 -143 12 -314 30 -170 18
-328 33 -350 33 l-40 1 -164 -310 c-90 -171 -167 -310 -170 -310 -5 0 -409
723 -419 750 -2 4 16 11 40 15 207 31 365 81 553 175 155 78 285 166 396 270
41 38 76 69 79 70 3 0 92 -162 199 -360z"/>
<path d="M2406 4444 c-567 -77 -1045 -504 -1186 -1059 -123 -484 7 -981 350
-1338 208 -218 455 -355 753 -419 136 -29 407 -31 541 -5 517 104 929 463
1091 950 59 177 70 251 70 457 0 207 -11 280 -71 459 -214 645 -868 1048
-1548 955z m431 -179 c595 -114 1023 -631 1023 -1235 0 -569 -382 -1068 -931
-1215 -241 -64 -484 -57 -724 22 -358 117 -660 412 -789 771 -88 245 -92 557
-11 806 153 468 560 804 1048 866 96 12 282 5 384 -15z"/>
<path d="M2460 3748 c-121 -249 -154 -307 -172 -311 -13 -3 -156 -24 -318 -47
-162 -23 -303 -45 -314 -49 -15 -6 23 -47 223 -242 l242 -236 -56 -324 c-30
-178 -54 -329 -53 -335 2 -6 137 60 302 147 l298 158 252 -133 c138 -73 274
-145 302 -159 l51 -26 -54 312 c-29 172 -55 323 -57 337 -4 22 27 56 238 260
232 224 242 235 217 243 -14 4 -165 27 -334 51 -170 25 -310 46 -312 48 -2 1
-71 140 -154 307 l-151 304 -150 -305z m358 -440 c4 -4 106 -21 226 -37 121
-17 221 -33 223 -35 2 -2 -70 -73 -160 -159 l-164 -157 38 -222 c21 -123 39
-226 39 -229 0 -4 -89 40 -197 97 -109 57 -203 104 -210 104 -7 0 -98 -45
-203 -100 -106 -55 -195 -100 -199 -100 -4 0 9 100 30 223 l38 222 -165 163
c-91 89 -162 162 -157 162 11 0 448 62 449 64 1 0 48 93 104 206 l103 205 99
-200 c54 -110 102 -203 106 -207z"/>
</g>
</svg>
