<?xml version="1.0" standalone="no"?>
<!DOCTYPE svg PUBLIC "-//W3C//DTD SVG 20010904//EN"
 "http://www.w3.org/TR/2001/REC-SVG-20010904/DTD/svg10.dtd">
<svg version="1.0" xmlns="http://www.w3.org/2000/svg"
 width="512.000000pt" height="512.000000pt" viewBox="0 0 512.000000 512.000000"
 preserveAspectRatio="xMidYMid meet">

<g transform="translate(0.000000,512.000000) scale(0.100000,-0.100000)"
fill="#000000" stroke="none">
<path d="M3152 4704 c-32 -22 -44 -58 -31 -91 6 -15 72 -90 147 -165 l136
-138 -445 0 -446 0 -33 -22 c-73 -50 -75 -55 -78 -299 -3 -212 -2 -221 20
-260 29 -52 74 -79 143 -86 l54 -6 3 -601 3 -601 23 -37 c13 -21 40 -45 66
-57 42 -21 53 -21 886 -21 833 0 844 0 886 21 26 12 53 36 66 57 l23 37 3 601
3 601 54 6 c72 7 118 37 145 92 20 41 21 56 18 259 -3 238 -5 244 -78 294
l-33 22 -446 0 -445 0 136 138 c75 75 141 150 147 165 13 33 1 69 -31 91 -49
34 -62 26 -260 -171 l-188 -187 -188 187 c-198 197 -211 205 -260 171z m368
-729 l0 -175 -480 0 -480 0 0 175 0 175 480 0 480 0 0 -175z m1120 0 l0 -175
-90 0 c-144 0 -130 74 -130 -680 l0 -640 -370 0 -370 0 0 580 0 580 204 0
c210 0 258 7 276 40 16 31 11 79 -10 100 -19 19 -33 20 -245 20 l-225 0 0 175
0 175 480 0 480 0 0 -175z m-1120 -915 l0 -580 -370 0 -370 0 0 580 0 580 370
0 370 0 0 -580z"/>
<path d="M349 2521 l-29 -29 0 -826 0 -825 24 -28 24 -28 256 -3 c151 -2 280
1 313 8 72 13 127 49 161 105 l27 44 93 1 c57 0 105 -5 126 -14 18 -8 152 -83
297 -168 459 -269 479 -279 651 -323 207 -52 444 -42 647 28 53 19 459 206
904 417 604 286 819 393 852 422 163 144 128 407 -69 508 -108 55 -148 50
-501 -54 -309 -91 -325 -98 -325 -158 0 -33 39 -78 68 -78 10 0 129 32 263 71
354 102 346 101 392 88 116 -31 152 -178 64 -256 -37 -32 -1591 -772 -1701
-809 -193 -66 -401 -70 -601 -12 -110 32 -154 55 -512 264 -186 109 -360 206
-388 216 -34 12 -81 17 -147 18 l-98 0 0 394 c0 383 -1 394 -21 420 -16 20
-29 26 -59 26 -30 0 -43 -6 -59 -26 -21 -26 -21 -37 -21 -470 l0 -443 -24 -28
-24 -28 -226 -3 -226 -3 0 725 0 726 215 0 c135 0 223 -4 238 -11 31 -14 47
-48 47 -98 0 -23 8 -48 20 -64 l20 -25 438 -4 c551 -6 506 5 816 -193 236
-150 215 -145 624 -145 l338 0 52 -26 c117 -58 146 -202 59 -300 -62 -71 -42
-69 -547 -72 -448 -3 -455 -3 -477 -24 -44 -42 -21 -118 40 -133 13 -4 223 -5
467 -3 437 3 446 4 502 26 80 32 150 99 190 180 29 59 33 76 33 152 0 73 -4
94 -29 147 -35 76 -104 144 -184 181 l-57 27 -365 5 c-423 6 -353 -12 -613
153 -280 177 -286 178 -784 184 -332 4 -393 7 -393 20 0 26 -39 90 -74 121
-63 55 -108 62 -409 62 l-269 0 -29 -29z"/>
<path d="M704 2140 c-28 -11 -54 -48 -54 -78 0 -33 43 -72 80 -72 38 0 80 39
80 74 0 29 -36 72 -65 79 -11 3 -30 2 -41 -3z"/>
</g>
</svg>
