<?xml version="1.0" standalone="no"?>
<!DOCTYPE svg PUBLIC "-//W3C//DTD SVG 20010904//EN"
 "http://www.w3.org/TR/2001/REC-SVG-20010904/DTD/svg10.dtd">
<svg version="1.0" xmlns="http://www.w3.org/2000/svg"
 width="512.000000pt" height="512.000000pt" viewBox="0 0 512.000000 512.000000"
 preserveAspectRatio="xMidYMid meet">

<g transform="translate(0.000000,512.000000) scale(0.100000,-0.100000)"
fill="#000000" stroke="none">
<path d="M309 4461 c-78 -25 -139 -61 -155 -93 -21 -41 -17 -83 11 -116 29
-35 1755 -1441 1793 -1461 39 -21 104 -18 144 6 19 11 432 343 916 738 941
765 911 738 891 809 -11 39 -30 58 -85 85 -105 53 -25 51 -1804 50 -1560 0
-1658 -1 -1711 -18z"/>
<path d="M50 3967 c-9 -7 -24 -23 -33 -37 -16 -23 -17 -99 -17 -1031 0 -638 4
-1026 10 -1060 33 -175 183 -314 367 -340 40 -5 493 -8 1100 -7 l1031 3 26 24
c36 34 45 74 34 161 -6 41 -7 128 -4 193 18 358 154 666 406 917 245 246 516
370 883 405 138 13 142 14 169 44 l28 31 0 326 0 326 -29 29 c-24 23 -38 29
-73 29 -44 0 -56 -10 -874 -676 -606 -494 -846 -684 -894 -707 -58 -28 -74
-32 -150 -32 -63 1 -99 7 -141 23 -43 17 -227 161 -850 668 -437 356 -816 664
-842 685 -39 31 -57 39 -90 39 -23 0 -49 -6 -57 -13z"/>
<path d="M3833 2979 c-376 -33 -721 -260 -909 -595 -295 -527 -134 -1203 365
-1538 303 -204 669 -258 1011 -150 98 30 227 93 253 122 62 68 18 172 -73 172
-19 0 -64 -14 -100 -31 -178 -85 -344 -116 -530 -98 -404 40 -734 327 -836
729 -15 59 -19 108 -18 235 1 144 4 169 28 249 98 323 339 564 661 662 81 24
106 27 250 28 127 1 176 -3 235 -18 335 -85 590 -325 692 -650 37 -120 57
-341 39 -430 -17 -80 -83 -148 -157 -164 -106 -23 -199 24 -245 123 -16 35
-19 68 -19 283 0 267 -4 288 -60 317 -36 19 -57 19 -94 0 -27 -14 -30 -13 -65
14 -152 119 -380 138 -562 45 -59 -29 -158 -120 -198 -181 -189 -285 -51 -680
277 -794 171 -60 379 -18 516 104 l50 44 51 -51 c163 -163 421 -165 590 -5 64
60 110 145 126 234 15 79 6 307 -16 410 -50 236 -164 444 -333 607 -199 192
-440 302 -717 328 -60 5 -112 9 -115 9 -3 -1 -46 -5 -97 -10z m249 -877 c55
-27 122 -91 148 -142 43 -84 43 -205 1 -289 -80 -156 -276 -220 -431 -141 -51
26 -115 93 -142 148 -33 68 -33 207 1 272 42 81 115 143 201 171 49 16 172 5
222 -19z"/>
</g>
</svg>
