<?xml version="1.0" standalone="no"?>
<!DOCTYPE svg PUBLIC "-//W3C//DTD SVG 20010904//EN"
 "http://www.w3.org/TR/2001/REC-SVG-20010904/DTD/svg10.dtd">
<svg version="1.0" xmlns="http://www.w3.org/2000/svg"
 width="465.000000pt" height="465.000000pt" viewBox="0 0 465.000000 465.000000"
 preserveAspectRatio="xMidYMid meet">

<g transform="translate(0.000000,465.000000) scale(0.100000,-0.100000)"
fill="#000000" stroke="none">
<path d="M2197 4489 c-128 -19 -291 -83 -406 -161 -82 -55 -222 -207 -272
-293 -103 -179 -134 -295 -133 -495 0 -160 13 -229 65 -359 46 -114 114 -216
209 -312 132 -135 287 -222 471 -266 114 -27 328 -25 439 5 188 51 309 121
445 257 136 137 206 258 257 445 31 118 32 347 0 461 -103 376 -397 649 -769
714 -92 16 -213 18 -306 4z"/>
<path d="M1609 2170 c-512 -62 -961 -435 -1123 -933 -58 -179 -81 -412 -52
-547 39 -187 168 -355 337 -438 151 -75 96 -72 1299 -72 l1075 0 -35 27 c-154
120 -276 290 -335 467 -48 147 -61 351 -30 501 61 296 273 560 553 687 81 37
239 78 298 78 23 0 45 4 48 8 11 18 -184 118 -314 162 -36 12 -105 32 -155 43
-86 19 -124 21 -795 23 -388 1 -735 -2 -771 -6z"/>
<path d="M3575 1780 c-264 -42 -502 -221 -616 -463 -73 -157 -93 -368 -50
-532 141 -533 732 -775 1208 -494 73 44 218 189 261 261 113 191 149 422 97
628 -40 157 -148 325 -277 429 -164 133 -419 202 -623 171z m180 -345 c25 -24
25 -27 25 -200 l0 -175 175 0 c173 0 176 0 200 -25 33 -32 33 -78 0 -110 -24
-25 -27 -25 -200 -25 l-175 0 0 -175 c0 -173 0 -176 -25 -200 -32 -33 -78 -33
-110 0 -25 24 -25 27 -25 200 l0 175 -175 0 c-173 0 -176 0 -200 25 -16 15
-25 36 -25 55 0 19 9 40 25 55 24 25 27 25 200 25 l175 0 0 175 c0 173 0 176
25 200 15 16 36 25 55 25 19 0 40 -9 55 -25z"/>
</g>
</svg>
